# xmcd CD database file
#
# Track frame offsets:
#	150
#	23386
#	43496
#	66723
#
# Disc length: 1156 seconds
#
# Revision: 3
# Processed by: cddbd v1.5.1PL2 Copyright (c) Steve Scherf et al.
# Submitted via: CDex 1.60beta1-cs1
#
DISCID=35048204
DTITLE=小柳ゆき - Fair Wind
DYEAR=2006
DGENRE=J-Pop
TTITLE0=Fair Wind
TTITLE1=GATE4
TTITLE2=Fair Wind -Inst-
TTITLE3=GATE4 -Inst-
EXTD=YEAR: 2006
EXTT0=
EXTT1=
EXTT2=
EXTT3=
PLAYORDER=
